<?xml version="1.0" encoding="utf-8"?><svg xmlns="http://www.w3.org/2000/svg" xmlns:xlink="http://www.w3.org/1999/xlink"><symbol viewBox="0 0 19 16" id="i-tw" xmlns="http://www.w3.org/2000/svg"><path d="M19 2.076a7.75 7.75 0 0 1-2.239.613A3.904 3.904 0 0 0 18.475.533 7.809 7.809 0 0 1 16 1.479 3.892 3.892 0 0 0 13.154.248c-2.516 0-4.366 2.348-3.797 4.786A11.066 11.066 0 0 1 1.323.96a3.903 3.903 0 0 0 1.206 5.205 3.882 3.882 0 0 1-1.765-.488C.721 7.484 2.016 9.173 3.89 9.549a3.907 3.907 0 0 1-1.76.067 3.9 3.9 0 0 0 3.641 2.707A7.838 7.838 0 0 1 0 13.937a11.035 11.035 0 0 0 5.976 1.752c7.237 0 11.326-6.113 11.079-11.595A7.936 7.936 0 0 0 19 2.076z"/></symbol></svg>